Coordinates
version=1
nRows=15
nColumns=42
inDegrees=yes

Units are S.I. units (second, meters, Newtons, ...)
If the header above contains a line with 'inDegrees', this indicates whether rotational values are in degrees (yes) or radians (no).

endheader
time	pelvis_tilt	pelvis_list	pelvis_rotation	pelvis_tx	pelvis_ty	pelvis_tz	hip_flexion_r	hip_adduction_r	hip_rotation_r	knee_angle_r	knee_adduction_r	knee_angle_r_beta	ankle_angle_r	subtalar_angle_r	mtp_angle_r	hip_flexion_l	hip_adduction_l	hip_rotation_l	knee_angle_l	knee_adduction_l	knee_angle_l_beta	ankle_angle_l	subtalar_angle_l	mtp_angle_l	lumbar_extension	lumbar_bending	lumbar_rotation	arm_flex_r	arm_add_r	arm_rot_r	elbow_flex_r	pro_sup_r	wrist_flex_r	wrist_dev_r	arm_flex_l	arm_add_l	arm_rot_l	elbow_flex_l	pro_sup_l	wrist_flex_l	wrist_dev_l
      2.16000000	      6.13470324	      0.44894833	      4.15623230	     -0.11241361	      0.89241203	      0.21591721	     20.83308396	     -2.29367160	    -19.51959399	     53.71093693	     -8.63866251	      0.93743269	      2.51921003	    -13.31707643	     -7.50035605	     -6.73437797	      8.35262626	      3.83908920	     12.39123969	     -5.86306329	      0.21626793	     18.89479019	      2.52797931	     -7.50035605	    -22.36688348	      1.03917528	      2.06979965	      2.66136923	    -21.04201239	     19.46485086	     40.30377921	     90.00000001	      0.00000000	      0.00000000	     16.34108732	    -20.52165392	     26.74972389	     44.06761490	     90.00000001	      0.00000000	      0.00000000
      2.17000000	      6.24708897	      0.37721070	      4.59946340	     -0.10086198	      0.89196111	      0.21527242	     21.31962985	     -2.22565386	    -19.72200549	     50.46974391	     -8.19803865	      0.88086320	      2.76957178	    -12.96330518	     -7.50034101	     -8.07373949	      8.08300107	      3.79604768	     11.69380294	     -5.89863436	      0.20409536	     19.52690894	      3.64127069	     -7.50034101	    -22.55522310	      1.23841886	      1.64397772	      1.87439642	    -20.76869843	     19.32827161	     40.11550161	     90.00000001	      0.00000000	      0.00000000	     17.51821888	    -20.93847807	     26.44939803	     45.08212975	     90.00000001	      0.00000000	      0.00000000
      2.18000000	      5.88635823	      0.46403088	      5.01083662	     -0.09000307	      0.89043659	      0.21445035	     22.42192687	     -2.40624841	    -19.57354665	     47.36247293	     -7.61979119	      0.82663109	      3.24616802	    -12.48409084	     -7.50033384	     -8.58052476	      8.18810791	      3.85776705	     11.53176914	     -6.13764256	      0.20126734	     20.06274033	      4.08059684	     -7.50033384	    -22.31203479	      1.25760390	      1.17243125	      1.13627588	    -20.49083745	     19.31791051	     39.91031438	     90.00000001	      0.00000000	      0.00000000	     18.70293097	    -21.29645466	     26.17369539	     45.95613326	     90.00000001	      0.00000000	      0.00000000
      2.19000000	      6.18289823	      0.32804371	      5.44866089	     -0.07826755	      0.88992856	      0.21418399	     22.37707673	     -2.20965755	    -20.40669595	     43.53612167	     -7.49213547	      0.75984867	      3.54051063	    -11.60136432	     -7.50031981	    -10.07932303	      7.64191321	      3.89584887	     10.93725079	     -5.87425221	      0.19089104	     20.86862395	      5.13593874	     -7.50031981	    -22.69815255	      1.50438360	      0.83920469	      0.43399254	    -20.11654832	     19.01344464	     39.59803445	     90.00000001	      0.00000000	      0.00000000	     19.93474702	    -21.68361763	     25.91105439	     46.88906151	     90.00000001	      0.00000000	      0.00000000
      2.20000000	      6.14579199	      0.33947524	      5.84069939	     -0.06689210	      0.88855840	      0.21374263	     22.77508397	     -2.24641665	    -21.37990444	     39.84127628	     -7.52185904	      0.69536145	      4.34311282	     -9.54629515	     -7.50029341	    -10.95374062	      7.44442455	      3.71286823	     10.77985090	     -5.86944303	      0.18814389	     21.66926978	      6.22613739	     -7.50029341	    -22.76623332	      1.58579983	      0.50506602	     -0.31386788	    -19.76117366	     18.69555220	     39.39476761	     90.00000001	      0.00000000	      0.00000000	     21.17308590	    -22.00232422	     25.74612261	     47.65425890	     90.00000001	      0.00000000	      0.00000000
      2.21000000	      5.94288702	      0.36951525	      6.14812158	     -0.05590295	      0.88681550	      0.21345561	     23.29326590	     -2.24577213	    -21.91436733	     36.11078790	     -7.26709734	      0.63025214	      4.72871047	     -8.37750422	     -7.50028404	    -11.50516792	      7.30544809	      3.80885569	     10.88912362	     -5.77619987	      0.19005106	     22.43464424	      6.40283429	     -7.50028404	    -22.71573918	      1.61990800	      0.21051945	     -0.87335950	    -19.40885367	     18.57002897	     38.97334407	     90.00000001	      0.00000000	      0.00000000	     22.37632824	    -22.24025493	     25.45547451	     48.35289780	     90.00000001	      0.00000000	      0.00000000
      2.22000000	      5.50272363	      0.59802119	      6.28813030	     -0.04508938	      0.88440670	      0.21324217	     24.19289737	     -2.46029628	    -22.39058690	     32.71346141	     -7.11696146	      0.57095761	      5.11966928	     -7.24860979	     -7.50027820	    -11.77411792	      7.65784364	      3.87485102	     11.07838813	     -6.09471309	      0.19335435	     22.91056668	      6.54072970	     -7.50027820	    -22.44478661	      1.38150144	      0.02939663	     -1.51696666	    -19.12545947	     18.49399666	     38.77027992	     90.00000001	      0.00000000	      0.00000000	     23.53245102	    -22.43340440	     25.17625761	     48.96821142	     90.00000001	      0.00000000	      0.00000000
      2.23000000	      5.85354706	      0.45193935	      6.63875094	     -0.03301902	      0.88320812	      0.21334328	     23.79761029	     -2.22655442	    -24.88323332	     28.72714866	     -7.61082076	      0.50138333	      6.49792371	     -1.89847780	     -7.50025778	    -13.14201412	      7.06490275	      3.85273574	     10.87574738	     -5.79246691	      0.18981760	     23.72458913	      7.34040395	     -7.50025778	    -22.88374053	      1.63945720	     -0.10098836	     -2.20812306	    -18.65684180	     17.70265230	     38.49856622	     90.00000001	      0.00000000	      0.00000000	     24.70210745	    -22.60213183	     25.02540876	     49.61891333	     90.00000001	      0.00000000	      0.00000000
      2.24000000	      5.64144642	      0.51140484	      6.79390322	     -0.02152617	      0.88088053	      0.21346798	     24.23553223	     -2.24786981	    -26.28900478	     25.43786237	     -7.59418872	      0.44397445	      7.29417159	      1.67223050	     -7.50024077	    -13.59595993	      7.02930229	      3.77656117	     11.25661851	     -5.82766861	      0.19646506	     24.47173903	      7.47803592	     -7.50024077	    -22.76943267	      1.58824096	     -0.19074715	     -2.79466094	    -18.27265395	     17.39359541	     38.12339322	     90.00000001	      0.00000000	      0.00000000	     25.71254814	    -22.70568804	     24.73592756	     50.16189288	     90.00000001	      0.00000000	      0.00000000
      2.25000000	      5.38450243	      0.66798528	      6.88925086	     -0.00999283	      0.87829506	      0.21362716	     24.80461754	     -2.43964303	    -27.78883048	     22.71208777	     -7.54025286	      0.39640071	      8.23797288	      5.87724183	     -7.50021893	    -14.00910593	      7.13796793	      3.69186756	     11.64782122	     -5.89350625	      0.20329283	     25.25238793	      7.70737380	     -7.50021893	    -22.61896967	      1.42241854	     -0.24439298	     -3.37370132	    -17.90857968	     17.01176346	     37.81958967	     90.00000001	      0.00000000	      0.00000000	     26.66385842	    -22.77755208	     24.44688995	     50.67837264	     90.00000001	      0.00000000	      0.00000000
      2.26000000	      5.10590206	      0.72355676	      6.92604297	      0.00150354	      0.87566898	      0.21404479	     25.32369193	     -2.30847500	    -28.41977239	     20.21841375	     -7.35084017	      0.35287789	      8.29652659	      8.03220994	     -7.50021048	    -14.28388265	      7.10209291	      3.47019943	     12.22532871	     -5.88276244	      0.21337224	     25.94647043	      7.41960854	     -7.50021048	    -22.43542989	      1.34268570	     -0.22290924	     -3.81688703	    -17.58615189	     16.83400554	     37.39380182	     90.00000001	      0.00000000	      0.00000000	     27.51030463	    -22.77178276	     23.96199565	     51.16424930	     90.00000001	      0.00000000	      0.00000000
      2.27000000	      4.92760490	      0.85527360	      6.98128760	      0.01353375	      0.87303052	      0.21435317	     25.86045506	     -2.51275464	    -30.12804580	     18.56383918	     -7.31338190	      0.32400012	      9.17394077	     12.49626852	     -7.50019357	    -14.80944661	      7.18015301	      3.34995478	     12.64490708	     -6.00055159	      0.22069526	     26.54320419	      7.84317450	     -7.50019357	    -22.31939091	      1.20678950	     -0.21774795	     -4.35911775	    -17.24579454	     16.37457154	     37.16570386	     90.00000001	      0.00000000	      0.00000000	     28.19605134	    -22.77767347	     23.48918669	     51.70485351	     90.00000001	      0.00000000	      0.00000000
      2.28000000	      4.70901525	      0.90387386	      7.00895127	      0.02552803	      0.87038606	      0.21484699	     26.37764302	     -2.43771056	    -30.81177635	     17.30332368	     -7.22193204	      0.30199997	      9.35280242	     14.87707902	     -7.50018287	    -15.16388545	      7.11697763	      3.09087963	     13.27231534	     -6.02137999	      0.23164560	     27.11789271	      7.80961355	     -7.50018287	    -22.15979128	      1.14944458	     -0.18325081	     -4.75294819	    -16.96920624	     16.19856856	     36.80906906	     90.00000001	      0.00000000	      0.00000000	     28.75625519	    -22.72896393	     22.86813310	     52.23676392	     90.00000001	      0.00000000	      0.00000000
      2.29000000	      4.49332191	      0.97449546	      7.00988398	      0.03766002	      0.86776034	      0.21529831	     26.85420828	     -2.30372852	    -30.81571828	     16.56201667	     -7.16048603	      0.28906172	      9.39022627	     16.09035766	     -7.50017880	    -15.55235618	      7.11713652	      2.99603862	     13.90239078	     -6.07185995	      0.24264249	     27.67330696	      7.65657908	     -7.50017880	    -21.99179101	      1.08246978	     -0.15288260	     -5.08519277	    -16.77263241	     16.13786755	     36.50584357	     90.00000001	      0.00000000	      0.00000000	     29.19103674	    -22.71712225	     22.35115889	     52.75870528	     90.00000001	      0.00000000	      0.00000000
      2.30000000	      4.46206506	      0.88638675	      7.08714625	      0.05038244	      0.86546386	      0.21589614	     27.11478296	     -2.03045258	    -31.30102886	     16.39039614	     -7.33394925	      0.28606638	      9.55988791	     17.76889797	     -7.50017303	    -16.08141899	      6.77134063	      2.63099394	     14.65321662	     -6.00193812	      0.25574688	     28.11877320	      7.66908039	     -7.50017303	    -21.94505071	      1.21101255	     -0.14474564	     -5.36049593	    -16.54276762	     15.98009242	     36.12126895	     90.00000001	      0.00000000	      0.00000000	     29.37513626	    -22.63319185	     21.46193632	     53.39904475	     90.00000001	      0.00000000	      0.00000000
